<svg xmlns="http://www.w3.org/2000/svg" viewBox="0 0 300 300" width="400" height="400">
<rect width="300" height="300" fill="#0f172a"/>
<circle cx="150" cy="150" r="80" fill="none" stroke="#38bdf8" stroke-width="4"/>
<circle cx="150" cy="150" r="65" fill="none" stroke="#1e293b" stroke-width="2"/>
<circle cx="150" cy="150" r="12" fill="#38bdf8"/>
<rect x="-10.0" y="-24.0" width="20" height="48" fill="#a78bfa" stroke="#c4b5fd" stroke-width="2" transform="translate(230.0,150.0) rotate(45.0)"/>
<rect x="-10.0" y="-24.0" width="20" height="48" fill="#a78bfa" stroke="#c4b5fd" stroke-width="2" transform="translate(206.6,206.6) rotate(90.0)"/>
<rect x="-10.0" y="-24.0" width="20" height="48" fill="#a78bfa" stroke="#c4b5fd" stroke-width="2" transform="translate(150.0,230.0) rotate(135.0)"/>
<rect x="-10.0" y="-24.0" width="20" height="48" fill="#a78bfa" stroke="#c4b5fd" stroke-width="2" transform="translate(93.4,206.6) rotate(180.0)"/>
<rect x="-10.0" y="-24.0" width="20" height="48" fill="#a78bfa" stroke="#c4b5fd" stroke-width="2" transform="translate(70.0,150.0) rotate(225.0)"/>
<rect x="-10.0" y="-24.0" width="20" height="48" fill="#a78bfa" stroke="#c4b5fd" stroke-width="2" transform="translate(93.4,93.4) rotate(270.0)"/>
<rect x="-10.0" y="-24.0" width="20" height="48" fill="#a78bfa" stroke="#c4b5fd" stroke-width="2" transform="translate(150.0,70.0) rotate(315.0)"/>
<rect x="-10.0" y="-24.0" width="20" height="48" fill="#a78bfa" stroke="#c4b5fd" stroke-width="2" transform="translate(206.6,93.4) rotate(360.0)"/>
<text x="150" y="265" text-anchor="middle" fill="#e2e8f0" font-size="16" font-family="sans-serif">麦轮俯视示意图</text>
<text x="20" y="280" fill="#94a3b8" font-size="12" font-family="sans-serif">辊子与轮毂成 45°，实现斜向分力</text>
</svg>