<svg xmlns="http://www.w3.org/2000/svg" viewBox="0 0 300 300" width="400" height="400">
<rect width="300" height="300" fill="#0f172a"/>
<circle cx="150" cy="150" r="80" fill="none" stroke="#38bdf8" stroke-width="4"/>
<circle cx="150" cy="150" r="65" fill="none" stroke="#1e293b" stroke-width="2"/>
<circle cx="150" cy="150" r="12" fill="#38bdf8"/>
<rect x="-9.0" y="-22.0" width="18" height="44" fill="#f59e0b" stroke="#fbbf24" stroke-width="2" transform="translate(230.0,150.0) rotate(0.0)"/>
<rect x="-9.0" y="-22.0" width="18" height="44" fill="#f59e0b" stroke="#fbbf24" stroke-width="2" transform="translate(206.6,206.6) rotate(45.0)"/>
<rect x="-9.0" y="-22.0" width="18" height="44" fill="#f59e0b" stroke="#fbbf24" stroke-width="2" transform="translate(150.0,230.0) rotate(90.0)"/>
<rect x="-9.0" y="-22.0" width="18" height="44" fill="#f59e0b" stroke="#fbbf24" stroke-width="2" transform="translate(93.4,206.6) rotate(135.0)"/>
<rect x="-9.0" y="-22.0" width="18" height="44" fill="#f59e0b" stroke="#fbbf24" stroke-width="2" transform="translate(70.0,150.0) rotate(180.0)"/>
<rect x="-9.0" y="-22.0" width="18" height="44" fill="#f59e0b" stroke="#fbbf24" stroke-width="2" transform="translate(93.4,93.4) rotate(225.0)"/>
<rect x="-9.0" y="-22.0" width="18" height="44" fill="#f59e0b" stroke="#fbbf24" stroke-width="2" transform="translate(150.0,70.0) rotate(270.0)"/>
<rect x="-9.0" y="-22.0" width="18" height="44" fill="#f59e0b" stroke="#fbbf24" stroke-width="2" transform="translate(206.6,93.4) rotate(315.0)"/>
<text x="150" y="265" text-anchor="middle" fill="#e2e8f0" font-size="16" font-family="sans-serif">全向轮俯视示意图</text>
<text x="20" y="280" fill="#94a3b8" font-size="12" font-family="sans-serif">小辊子与轮毂轴线垂直，可侧向滑移</text>
</svg>