<svg xmlns="http://www.w3.org/2000/svg" viewBox="0 0 1200 400" width="1200" height="400" preserveAspectRatio="xMidYMid slice">
<defs>
  <linearGradient id="bg" x1="0%" y1="0%" x2="100%" y2="100%">
    <stop offset="0%" stop-color="#000000"/>
    <stop offset="100%" stop-color="#0a120a"/>
  </linearGradient>
  <linearGradient id="accent" x1="0%" y1="0%" x2="100%" y2="0%">
    <stop offset="0%" stop-color="#0AE448"/>
    <stop offset="100%" stop-color="#4ADE80"/>
  </linearGradient>
  <filter id="glow">
    <feGaussianBlur stdDeviation="2.5" result="coloredBlur"/>
    <feMerge><feMergeNode in="coloredBlur"/><feMergeNode in="SourceGraphic"/></feMerge>
  </filter>
</defs>
<rect width="1200" height="400" fill="url(#bg)"/>
<line x1="0" y1="0" x2="0" y2="400" stroke="#1a2e1a" stroke-width="0.5" opacity="0.5"/>
<line x1="60" y1="0" x2="60" y2="400" stroke="#1a2e1a" stroke-width="0.5" opacity="0.5"/>
<line x1="120" y1="0" x2="120" y2="400" stroke="#1a2e1a" stroke-width="0.5" opacity="0.5"/>
<line x1="180" y1="0" x2="180" y2="400" stroke="#1a2e1a" stroke-width="0.5" opacity="0.5"/>
<line x1="240" y1="0" x2="240" y2="400" stroke="#1a2e1a" stroke-width="0.5" opacity="0.5"/>
<line x1="300" y1="0" x2="300" y2="400" stroke="#1a2e1a" stroke-width="0.5" opacity="0.5"/>
<line x1="360" y1="0" x2="360" y2="400" stroke="#1a2e1a" stroke-width="0.5" opacity="0.5"/>
<line x1="420" y1="0" x2="420" y2="400" stroke="#1a2e1a" stroke-width="0.5" opacity="0.5"/>
<line x1="480" y1="0" x2="480" y2="400" stroke="#1a2e1a" stroke-width="0.5" opacity="0.5"/>
<line x1="540" y1="0" x2="540" y2="400" stroke="#1a2e1a" stroke-width="0.5" opacity="0.5"/>
<line x1="600" y1="0" x2="600" y2="400" stroke="#1a2e1a" stroke-width="0.5" opacity="0.5"/>
<line x1="660" y1="0" x2="660" y2="400" stroke="#1a2e1a" stroke-width="0.5" opacity="0.5"/>
<line x1="720" y1="0" x2="720" y2="400" stroke="#1a2e1a" stroke-width="0.5" opacity="0.5"/>
<line x1="780" y1="0" x2="780" y2="400" stroke="#1a2e1a" stroke-width="0.5" opacity="0.5"/>
<line x1="840" y1="0" x2="840" y2="400" stroke="#1a2e1a" stroke-width="0.5" opacity="0.5"/>
<line x1="900" y1="0" x2="900" y2="400" stroke="#1a2e1a" stroke-width="0.5" opacity="0.5"/>
<line x1="960" y1="0" x2="960" y2="400" stroke="#1a2e1a" stroke-width="0.5" opacity="0.5"/>
<line x1="1020" y1="0" x2="1020" y2="400" stroke="#1a2e1a" stroke-width="0.5" opacity="0.5"/>
<line x1="1080" y1="0" x2="1080" y2="400" stroke="#1a2e1a" stroke-width="0.5" opacity="0.5"/>
<line x1="1140" y1="0" x2="1140" y2="400" stroke="#1a2e1a" stroke-width="0.5" opacity="0.5"/>
<line x1="1200" y1="0" x2="1200" y2="400" stroke="#1a2e1a" stroke-width="0.5" opacity="0.5"/>
<line x1="0" y1="0" x2="1200" y2="0" stroke="#1a2e1a" stroke-width="0.5" opacity="0.5"/>
<line x1="0" y1="60" x2="1200" y2="60" stroke="#1a2e1a" stroke-width="0.5" opacity="0.5"/>
<line x1="0" y1="120" x2="1200" y2="120" stroke="#1a2e1a" stroke-width="0.5" opacity="0.5"/>
<line x1="0" y1="180" x2="1200" y2="180" stroke="#1a2e1a" stroke-width="0.5" opacity="0.5"/>
<line x1="0" y1="240" x2="1200" y2="240" stroke="#1a2e1a" stroke-width="0.5" opacity="0.5"/>
<line x1="0" y1="300" x2="1200" y2="300" stroke="#1a2e1a" stroke-width="0.5" opacity="0.5"/>
<line x1="0" y1="360" x2="1200" y2="360" stroke="#1a2e1a" stroke-width="0.5" opacity="0.5"/>
<rect x="770.0" y="140.0" width="220" height="160" rx="16" fill="none" stroke="#22c55e" stroke-width="2" opacity="0.6"/>
<rect x="723.0" y="101.0" width="44" height="28" rx="4" fill="#0AE448" opacity="0.3"/>
<rect x="723.0" y="101.0" width="44" height="28" rx="4" fill="none" stroke="#4ADE80" stroke-width="1.5"/>
<rect x="993.0" y="101.0" width="44" height="28" rx="4" fill="#0AE448" opacity="0.3"/>
<rect x="993.0" y="101.0" width="44" height="28" rx="4" fill="none" stroke="#4ADE80" stroke-width="1.5"/>
<rect x="723.0" y="311.0" width="44" height="28" rx="4" fill="#0AE448" opacity="0.3"/>
<rect x="723.0" y="311.0" width="44" height="28" rx="4" fill="none" stroke="#4ADE80" stroke-width="1.5"/>
<rect x="993.0" y="311.0" width="44" height="28" rx="4" fill="#0AE448" opacity="0.3"/>
<rect x="993.0" y="311.0" width="44" height="28" rx="4" fill="none" stroke="#4ADE80" stroke-width="1.5"/>
<circle cx="880" cy="220" r="35" fill="none" stroke="#22c55e" stroke-width="2" opacity="0.8"/>
<circle cx="880" cy="220" r="8" fill="#0AE448" filter="url(#glow)"/>
<line x1="880" y1="220" x2="960" y2="170" stroke="#4ADE80" stroke-width="1" opacity="0.6"/>
<line x1="880" y1="220" x2="970" y2="250" stroke="#4ADE80" stroke-width="1" opacity="0.6"/>
<path d="M80,320 L160,320 L160,240 L240,240 L240,160 L320,160 L320,80" fill="none" stroke="#0AE448" stroke-width="2" opacity="0.6"/>
<circle cx="80" cy="320" r="4" fill="#0AE448"/>
<circle cx="160" cy="320" r="4" fill="#0AE448"/>
<circle cx="160" cy="240" r="4" fill="#0AE448"/>
<circle cx="240" cy="240" r="4" fill="#0AE448"/>
<circle cx="240" cy="160" r="4" fill="#0AE448"/>
<circle cx="320" cy="160" r="4" fill="#0AE448"/>
<circle cx="320" cy="80" r="4" fill="#0AE448"/>
<text x="80" y="130" fill="#f8fafc" font-size="52" font-weight="bold" font-family="system-ui, -apple-system, sans-serif">NEC</text>
<text x="80" y="185" fill="#86efac" font-size="24" font-family="system-ui, -apple-system, sans-serif">新能源开发者社区</text>
<text x="80" y="235" fill="#4ADE80" font-size="16" font-family="monospace">ROBOCON · 嵌入式 · 机器视觉 · 开源工程</text>
<line x1="80" y1="265" x2="300" y2="265" stroke="url(#accent)" stroke-width="3"/>
</svg>